Coordinates
version=1
nRows=16
nColumns=42
inDegrees=yes

Units are S.I. units (second, meters, Newtons, ...)
If the header above contains a line with 'inDegrees', this indicates whether rotational values are in degrees (yes) or radians (no).

endheader
time	pelvis_tilt	pelvis_list	pelvis_rotation	pelvis_tx	pelvis_ty	pelvis_tz	hip_flexion_r	hip_adduction_r	hip_rotation_r	knee_angle_r	knee_adduction_r	knee_angle_r_beta	ankle_angle_r	subtalar_angle_r	mtp_angle_r	hip_flexion_l	hip_adduction_l	hip_rotation_l	knee_angle_l	knee_adduction_l	knee_angle_l_beta	ankle_angle_l	subtalar_angle_l	mtp_angle_l	lumbar_extension	lumbar_bending	lumbar_rotation	arm_flex_r	arm_add_r	arm_rot_r	elbow_flex_r	pro_sup_r	wrist_flex_r	wrist_dev_r	arm_flex_l	arm_add_l	arm_rot_l	elbow_flex_l	pro_sup_l	wrist_flex_l	wrist_dev_l
      1.98000000	     11.30762374	     -0.12759610	     -0.06198453	     -0.80380050	      0.92148573	     -0.00997308	      5.52000943	     -1.43069196	     -5.79296654	     77.52989566	     -1.72004317	      1.35315195	     14.17108584	     -5.30783134	     -7.51600322	      7.16601584	      4.23979686	     -8.11819926	     35.75277307	    -10.06966070	      0.62400361	     19.85964200	      9.05688854	     -7.51600322	    -34.92966358	     -3.10198280	     -3.89351168	     -0.48286466	    -15.34135972	      1.32805096	     56.35797592	     90.00000001	      0.00000000	      0.00000000	     15.92108369	    -11.86902135	    -14.26372857	     35.33947356	     90.00000001	      0.00000000	      0.00000000
      1.99000000	     11.16001055	     -0.04748349	     -0.08062448	     -0.79639091	      0.92209811	     -0.01051972	      7.26718286	     -1.36281855	     -5.37167272	     77.67486200	     -1.52145187	      1.35568209	     15.26081198	     -5.75094804	     -7.51570262	      6.58637416	      4.41134718	     -8.35354002	     35.26667447	    -10.22434222	      0.61551959	     20.08313785	      9.33067753	     -7.51570262	    -34.95054298	     -3.11628277	     -4.07006359	     -1.21455446	    -14.92664076	      1.41113071	     55.19296825	     90.00000001	      0.00000000	      0.00000000	     16.84630829	    -12.08537906	    -14.30735670	     35.51847371	     90.00000001	      0.00000000	      0.00000000
      2.00000000	     11.00863109	      0.00346690	     -0.06922481	     -0.78902030	      0.92267401	     -0.01085483	      8.89202180	     -1.19331569	     -4.19389800	     77.48497267	     -0.55077774	      1.35236789	     16.34002628	     -6.56203973	     -7.51489405	      6.11424801	      4.45550268	     -9.01525451	     34.90572424	    -10.52004796	      0.60921982	     20.45157511	     10.54762104	     -7.51489405	    -34.92543128	     -3.13094315	     -4.36043498	     -1.51203543	    -14.23254598	      1.20860064	     52.90342615	     90.00000001	      0.00000000	      0.00000000	     17.94030569	    -12.33000829	    -14.72791966	     35.17658709	     90.00000001	      0.00000000	      0.00000000
      2.01000000	     10.91085269	      0.09206410	     -0.06340353	     -0.78154243	      0.92329647	     -0.01125209	     10.45669286	     -1.13559707	     -4.17282307	     77.00542576	     -0.63820695	      1.34399822	     17.18583667	     -6.88901698	     -7.51462812	      5.45733216	      4.63742818	     -9.22710823	     34.37435813	    -10.68528049	      0.59994573	     20.63826833	     10.76296133	     -7.51462812	    -34.97093422	     -3.15252584	     -4.52562878	     -2.39351369	    -13.89732249	      1.30238540	     52.19948874	     90.00000001	      0.00000000	      0.00000000	     18.79476132	    -12.51903450	    -14.76905060	     35.50990669	     90.00000001	      0.00000000	      0.00000000
      2.02000000	     10.80541366	      0.15319985	      0.01485167	     -0.77415133	      0.92389336	     -0.01155411	     11.92163159	     -1.06299752	     -4.16464280	     76.17481833	     -0.64062941	      1.32950139	     17.62573863	     -6.88688888	     -7.51445192	      4.90037070	      4.72382279	     -9.42581190	     34.04016167	    -10.77120401	      0.59411290	     20.71999234	     10.83855823	     -7.51445192	    -35.02622426	     -3.13311625	     -4.80918008	     -3.31576086	    -13.48106508	      1.43736715	     51.66539443	     90.00000001	      0.00000000	      0.00000000	     19.62107969	    -12.88766187	    -14.78741544	     35.88630455	     90.00000001	      0.00000000	      0.00000000
      2.03000000	     10.82967925	      0.23931678	      0.00195150	     -0.76643515	      0.92455809	     -0.01175338	     13.14128856	     -0.97804933	     -4.16019246	     75.14685434	     -0.71419724	      1.31156003	     18.82917556	     -7.95139669	     -7.51352946	      4.11188380	      4.83233447	    -10.20573168	     33.41368444	    -11.17758465	      0.58317881	     21.28662595	     12.81345703	     -7.51352946	    -35.09201310	     -3.18805454	     -4.99579191	     -3.55407807	    -12.90105742	      1.14828773	     49.14099966	     90.00000001	      0.00000000	      0.00000000	     20.70134829	    -12.93477203	    -15.34161537	     35.53000060	     90.00000001	      0.00000000	      0.00000000
      2.04000000	     10.69695320	      0.36461852	      0.07068806	     -0.75909940	      0.92492644	     -0.01200183	     14.52065113	     -1.02593927	     -4.20795277	     73.92853455	     -0.70860521	      1.29029634	     19.04390016	     -7.74342123	     -7.51338059	      3.64902579	      4.95505067	    -10.38592538	     33.23009421	    -11.16003507	      0.57997455	     21.30213713	     12.76309677	     -7.51338059	    -35.08458562	     -3.22422412	     -5.34603939	     -4.44778149	    -12.65260476	      1.23514252	     48.85198003	     90.00000001	      0.00000000	      0.00000000	     21.47088645	    -13.30831598	    -15.34062125	     35.96304983	     90.00000001	      0.00000000	      0.00000000
      2.05000000	     10.76529492	      0.44673761	      0.05009596	     -0.75132269	      0.92562783	     -0.01218428	     15.51474066	     -0.99406235	     -4.76831422	     72.36696169	     -1.23654230	      1.26304175	     20.21699524	     -8.31751538	     -7.51314326	      2.66406221	      5.20200153	    -10.40075881	     32.42339062	    -11.39700090	      0.56589492	     21.56276346	     13.12079008	     -7.51314326	    -35.20464693	     -3.25206648	     -5.29353304	     -5.33871069	    -12.36507002	      1.35313726	     47.81060853	     90.00000001	      0.00000000	      0.00000000	     22.36216138	    -13.27041435	    -15.35343544	     36.25719643	     90.00000001	      0.00000000	      0.00000000
      2.06000000	     10.61643694	      0.64779863	      0.10696693	     -0.74393177	      0.92583253	     -0.01234258	     16.73406791	     -1.20478332	     -4.95363416	     70.75741958	     -1.23676487	      1.23494994	     20.37379655	     -8.07860223	     -7.51299445	      2.23297248	      5.39456528	    -10.58542848	     32.28754773	    -11.34521480	      0.56352402	     21.57514823	     13.12883194	     -7.51299445	    -35.13768704	     -3.38192053	     -5.64834621	     -6.18139540	    -12.10650090	      1.43581972	     47.45484867	     90.00000001	      0.00000000	      0.00000000	     23.11636164	    -13.67593509	    -15.36910641	     36.65191724	     90.00000001	      0.00000000	      0.00000000
      2.07000000	     10.94200221	      0.62824721	      0.23611880	     -0.73585412	      0.92684871	     -0.01237440	     17.22899789	     -1.13020652	     -7.15923923	     68.59939536	     -3.01380903	      1.19728531	     20.57997409	     -8.43649374	     -7.51234964	      0.98666843	      5.39379227	    -10.90919592	     31.48814303	    -11.64935715	      0.54957177	     22.03492458	     14.87717032	     -7.51234964	    -35.46946281	     -3.27224309	     -5.74990903	     -6.46968776	    -11.60588964	      1.42697395	     45.12715276	     90.00000001	      0.00000000	      0.00000000	     24.16480487	    -13.63861588	    -15.89573436	     36.39667522	     90.00000001	      0.00000000	      0.00000000
      2.08000000	     10.74497065	      0.89180541	      0.28069457	     -0.72843560	      0.92678944	     -0.01245935	     18.34537091	     -1.48205254	     -7.35005714	     66.71749708	     -2.89032891	      1.16443999	     20.68039600	     -8.07231366	     -7.51220433	      0.63009069	      5.64532162	    -11.11042840	     31.38932502	    -11.60753791	      0.54784707	     22.04578451	     14.81930898	     -7.51220433	    -35.32203017	     -3.47002661	     -6.05052604	     -7.34894802	    -11.39534029	      1.49187841	     44.88332025	     90.00000001	      0.00000000	      0.00000000	     24.87496967	    -13.97058082	    -15.89908741	     36.82154425	     90.00000001	      0.00000000	      0.00000000
      2.09000000	     11.13863702	      0.86519184	      0.44470492	     -0.72032456	      0.92771804	     -0.01245161	     18.58163831	     -1.48960458	     -9.85689315	     64.20154176	     -4.71579467	      1.12052829	     20.63174577	     -7.07307642	     -7.51144148	     -0.63860502	      5.59804691	    -11.46171073	     30.71535999	    -11.90387468	      0.53608416	     22.46606523	     16.36963429	     -7.51144148	    -35.71479767	     -3.31822591	     -6.11164524	     -7.93358148	    -11.05080239	      1.57726105	     43.53856508	     90.00000001	      0.00000000	      0.00000000	     25.85975225	    -13.84445463	    -16.50401612	     36.80510262	     90.00000001	      0.00000000	      0.00000000
      2.10000000	     10.91898753	      1.19081120	      0.49655276	     -0.71284920	      0.92742449	     -0.01246760	     19.56870036	     -1.99099348	    -10.09542342	     62.11493676	     -4.45522377	      1.08411016	     20.59287996	     -6.63041867	     -7.51130282	     -0.95528479	      5.89658448	    -11.64312504	     30.64266335	    -11.84751839	      0.53481537	     22.46582413	     16.28978445	     -7.51130282	    -35.51292995	     -3.58101578	     -6.38668385	     -8.77960628	    -10.86888981	      1.64131098	     43.32459385	     90.00000001	      0.00000000	      0.00000000	     26.54624583	    -14.15833279	    -16.49406860	     37.23078040	     90.00000001	      0.00000000	      0.00000000
      2.11000000	     11.40107219	      1.14123705	      0.64468292	     -0.70472457	      0.92841537	     -0.01234518	     19.42083907	     -1.96017922	    -11.70992681	     59.20747500	     -5.34346850	      1.03336538	     19.83213881	     -5.61016830	     -7.51103055	     -2.41005659	      5.84325597	    -11.46203501	     29.91713980	    -11.89682870	      0.52215259	     22.66761139	     16.85044167	     -7.51103055	    -35.99612332	     -3.38596423	     -6.35774685	     -9.43205918	    -10.66809365	      1.84842465	     42.50509106	     90.00000001	      0.00000000	      0.00000000	     27.37654493	    -14.08992123	    -16.56464309	     37.49210213	     90.00000001	      0.00000000	      0.00000000
      2.12000000	     11.53740847	      1.36742557	      0.86442164	     -0.69669099	      0.92844419	     -0.01230434	     19.92169268	     -2.52044816	    -15.02503249	     56.73778253	     -7.35554956	      0.99026112	     19.63254143	     -1.11261474	     -7.51008659	     -3.15572335	      5.97710155	    -12.01225604	     29.70320537	    -12.18548667	      0.51841873	     23.02033358	     18.42620359	     -7.51008659	    -36.08639491	     -3.48724090	     -6.66387726	    -10.04492594	    -10.42495157	      2.17515805	     41.72596547	     90.00000001	      0.00000000	      0.00000000	     28.22555430	    -14.15360865	    -17.20876482	     37.51956689	     90.00000001	      0.00000000	      0.00000000
      2.13000000	     11.67171569	      1.58339229	      1.02992742	     -0.68874587	      0.92849029	     -0.01217577	     20.23228233	     -2.98679964	    -16.89876082	     54.09203912	     -8.07205400	      0.94408418	     18.69299279	      1.21829516	     -7.50953177	     -4.00136242	      6.16935109	    -11.94809945	     29.39542174	    -12.22765535	      0.51304689	     23.12328890	     18.86209066	     -7.50953177	    -36.18852846	     -3.58374963	     -6.85263907	    -10.70039541	    -10.24808863	      2.40457173	     41.26377373	     90.00000001	      0.00000000	      0.00000000	     28.97483648	    -14.27005328	    -17.31307902	     37.80475530	     90.00000001	      0.00000000	      0.00000000
